<?xml version="1.0" encoding="utf-8"?>
<!-- Generator: Adobe Illustrator 16.0.0, SVG Export Plug-In . SVG Version: 6.00 Build 0)  -->
<!DOCTYPE svg PUBLIC "-//W3C//DTD SVG 1.1//EN" "http://www.w3.org/Graphics/SVG/1.1/DTD/svg11.dtd">
<svg version="1.1"
	 id="Layer_1" xmlns:cc="http://creativecommons.org/ns#" xmlns:dc="http://purl.org/dc/elements/1.1/" xmlns:rdf="http://www.w3.org/1999/02/22-rdf-syntax-ns#"
	 xmlns="http://www.w3.org/2000/svg" xmlns:xlink="http://www.w3.org/1999/xlink" x="0px" y="0px" width="16px" height="16px"
	 viewBox="0 0 16 16" enable-background="new 0 0 16 16" xml:space="preserve">
<path fill="#FFFFFF" d="M9.5,8.25c0,1.104-0.896,2-2,2H2.375c-1.104,0-2-0.896-2-2V3.125c0-1.104,0.896-2,2-2H7.5
	c1.104,0,2,0.896,2,2V8.25z"/>
<g>
	<path fill="#9E9E9E" d="M0,13.7C0,14.971,1.03,16,2.3,16h11.4c1.271,0,2.3-1.029,2.3-2.3V2.3C16,1.03,14.971,0,13.7,0H2.3
		C1.03,0,0,1.03,0,2.3V13.7z"/>
</g>
<polygon fill="#FFFFFF" stroke="#9E9E9E" stroke-miterlimit="10" points="14.837,4.859 8.16,12.123 1.164,4.929 "/>
</svg>
