<?xml version="1.0" encoding="utf-8"?>
<!-- Generator: Adobe Illustrator 16.0.0, SVG Export Plug-In . SVG Version: 6.00 Build 0)  -->
<!DOCTYPE svg PUBLIC "-//W3C//DTD SVG 1.1//EN" "http://www.w3.org/Graphics/SVG/1.1/DTD/svg11.dtd">
<svg version="1.1" id="Layer_1" xmlns="http://www.w3.org/2000/svg" xmlns:xlink="http://www.w3.org/1999/xlink" x="0px" y="0px"
	 width="341.347px" height="166.538px" viewBox="0 0 341.347 166.538" enable-background="new 0 0 341.347 166.538"
	 xml:space="preserve">
<path fill-rule="evenodd" clip-rule="evenodd" fill="#FFFFFF" d="M178.951,166.538h1.826V0h-1.826V166.538L178.951,166.538z
	 M91.769,5.148l-5.916,2.894c-1.992,0.992-2.255,2.637-0.671,4.191l2.084,2.077c0.4,0.341,0.229,0.68-0.281,0.567
	c-3.247-0.399-6.545-0.626-9.901-0.74c-0.456,0-0.568-0.342-0.173-0.625l2.42-1.74c1.806-1.291,1.806-2.951,0-4.242l-5.389-3.841
	L68.554,7.53c-1.808,1.291-1.808,2.951,0,4.242l2.445,1.74c0.396,0.283,0.283,0.625-0.229,0.625c-3.3,0.114-6.656,0.341-9.901,0.74
	c-0.455,0.055-0.623-0.227-0.282-0.567l2.119-2.077c1.574-1.555,1.314-3.193-0.671-4.187l-5.919-2.898l3.137,15.293l0.004,0.062
	c4.788-0.723,9.694-1.101,14.681-1.101c5.003,0,9.924,0.378,14.733,1.108L91.769,5.148L91.769,5.148z M148.15,50.312h-4.91v-0.545
	c0.511-0.216,1.041-0.401,1.584-0.526v-4.646l0.062-0.921c-0.562,0.233-1.228,0.278-1.836,0.25l-0.076-0.497
	c0.98-0.279,2.287-0.808,3.17-1.46h0.453v7.273c0.509,0.125,1.042,0.311,1.553,0.526V50.312L148.15,50.312z M137.29,41.967
	c2.426,0,3.656,1.661,3.656,4.212c0,3.838-2.394,6.666-5.675,7.037l-0.313-0.541c2.411-0.653,3.717-2.519,4.042-4.866
	c-0.448,0.496-1.056,0.889-2.115,0.889c-1.814,0-3.217-1.136-3.217-3.204C133.668,43.444,135.053,41.967,137.29,41.967
	L137.29,41.967z M137.369,47.765L137.369,47.765c0.822,0,1.416-0.33,1.694-0.81c0.029-0.266,0.047-0.716,0.047-1.01
	c0-1.553-0.515-3.157-1.867-3.157c-1.135,0-1.706,0.963-1.706,2.66C135.537,46.647,136.22,47.765,137.369,47.765L137.369,47.765z
	 M10.235,41.967c2.424,0,3.653,1.661,3.653,4.212c0,3.838-2.395,6.666-5.675,7.037l-0.309-0.541
	c2.403-0.653,3.711-2.519,4.041-4.866c-0.452,0.496-1.06,0.889-2.119,0.889c-1.82,0-3.216-1.136-3.216-3.204
	C6.61,43.444,7.993,41.967,10.235,41.967L10.235,41.967z M10.308,47.765L10.308,47.765c0.827,0,1.416-0.33,1.697-0.81
	c0.03-0.266,0.047-0.716,0.047-1.01c0-1.553-0.514-3.157-1.866-3.157c-1.135,0-1.71,0.963-1.71,2.66
	C8.475,46.647,9.16,47.765,10.308,47.765L10.308,47.765z M5.172,50.312H0.261v-0.545c0.515-0.216,1.044-0.401,1.587-0.526v-4.646
	l0.063-0.921c-0.562,0.233-1.232,0.278-1.836,0.25L0,43.427c0.979-0.279,2.285-0.808,3.17-1.46h0.451v7.273
	c0.513,0.125,1.043,0.311,1.551,0.526V50.312L5.172,50.312z M63.729,60.371c1.138-0.746,2.308-1.247,3.545-1.244
	c-0.344-3.024-1.788-4.506-4.618-4.032l-1.397-6.868l2.788-4.215v-0.006l-3.551-17.462l-3.766,5.69l-5.686-3.767l3.552,17.466
	l4.216,2.791l6.957,34.184c-5.333-1.332-13.019-1.685-17.892-5.968c3.04,1.389,6.02,2.264,8.892,2.446
	c-0.186-0.971-0.452-1.964-0.812-2.969c3.247-3.469,3.081-8.265,4.629-12.178l-1.474-7.179c-2.739,2.482-4.974,6.545-7.411,9.22
	c0.058,0.117,0.107,0.219,0.154,0.311c0.952,2.03,1.67,3.919,2.181,5.7c-0.894-1.565-1.998-3.187-3.351-4.892
	c-1.272-1.607-7.509-7.618-10.212-12.41c-4.731-8.359,5.002-4.189,6.451-11.491c-5.959-0.786-4.934-5.035-13.623-4.44
	c-0.648-0.871-1.287-1.743-1.933-2.614c-6.443,7.81-4.874,20.314,0.479,28.279l0,0c13.126,19.542-2.755,30.657-9.492,47.411
	c-8.307-2.193,2.731-14.737,5.369-26.838c2.406-11.044-5.263-19.848-16.168-20.359c9.167,13.561,1.832,26.072,1.38,37.474
	c-0.321,8.266,2.012,11.976,8.236,13.05c-2.546,8.287-2.506,18.035,4.161,30.729h6.415c-4.521-11.597-1.375-19.014,5.57-26.026
	l-2.151,5.424c8.118,4.29,5.133,14.062,13.612,20.603h7.459c-11.595-10.838-3.373-14.322-7.715-26.309
	c-1.108-3.06-3.124-5.568-6.146-7.268c1.876-2.706,3.692-5.445,5.436-8.234c3.501-5.607,6.573-10.425,8.15-15.182
	c2.978-0.715,5.871-1.743,8.811-1.185c0.791,0.339,1.552,0.699,2.231,1.11l0.032,0.021l4.766,23.421
	c-1.558,0.784-2.626,2.396-2.626,4.257c0,1.865,1.071,3.478,2.631,4.259l-5.277,25.936l-3.855,2.547l1.907,13.289l6.938-11.49
	l-2.546-3.849l4.969-24.426l4.971,24.426l-2.55,3.849l6.942,11.49l1.9-13.289l-3.848-2.547l-5.277-25.939
	c1.556-0.783,2.625-2.394,2.625-4.255c0-1.858-1.069-3.47-2.623-4.255l4.765-23.422l0.033-0.021c0.68-0.411,1.44-0.771,2.233-1.11
	c2.938-0.559,5.831,0.47,8.812,1.185c1.576,4.757,4.644,9.574,8.147,15.182c1.738,2.789,3.559,5.528,5.434,8.234
	c-3.017,1.699-5.037,4.208-6.145,7.268c-4.343,11.986,3.884,15.471-7.716,26.309h7.459c8.48-6.54,5.492-16.312,13.612-20.603
	l-2.151-5.424c6.942,7.013,10.089,14.43,5.571,26.026h6.415c6.669-12.693,6.709-22.441,4.161-30.729
	c6.224-1.074,8.558-4.784,8.236-13.05c-0.452-11.401-7.786-23.913,1.378-37.474c-10.903,0.512-18.573,9.315-16.166,20.359
	c2.637,12.101,13.679,24.645,5.369,26.838l0,0c-6.736-16.754-22.619-27.869-9.488-47.411c5.352-7.965,6.919-20.47,0.478-28.279
	c-0.648,0.871-1.288,1.743-1.935,2.614c-8.69-0.595-7.66,3.654-13.627,4.44c1.452,7.302,11.188,3.132,6.458,11.491
	c-2.706,4.792-8.944,10.803-10.215,12.41c-1.353,1.705-2.46,3.326-3.351,4.892c0.508-1.781,1.232-3.67,2.181-5.7
	c0.047-0.092,0.097-0.193,0.158-0.311c-2.44-2.675-4.675-6.737-7.41-9.22l-1.476,7.179c1.548,3.913,1.381,8.709,4.626,12.178
	c-0.364,1.005-0.628,1.998-0.811,2.969c2.875-0.183,5.848-1.058,8.895-2.446c-4.877,4.283-12.563,4.636-17.896,5.968l6.954-34.184
	l4.22-2.791l3.553-17.466l-5.688,3.767l-3.764-5.69l-3.552,17.462v0.006l2.792,4.215l-1.397,6.868
	c-2.834-0.475-4.274,1.007-4.619,4.032c1.237-0.003,2.406,0.5,3.545,1.246l-4.771,23.451c-3.22,1.545-4.833,4.587-1.476,7.249
	l-3.968,19.504L69.975,91.07c3.349-2.659,1.74-5.696-1.474-7.242L63.729,60.371L63.729,60.371z M316.061,96.664h6.601v2.048
	c1.394-1.049,4.346-2.696,6.992-2.696c7.348,0,11.693,3.994,11.693,13.188c0,11.395-6.945,15.242-14.489,15.242
	c-1.649,0-3.048-0.149-4.196-0.245v10.744h-6.601V96.664L316.061,96.664z M334.601,109.757L334.601,109.757
	c0-5.197-1.75-8.147-6.843-8.147c-1.854,0-4.1,1.048-5.097,1.452V118.9c0.997,0.102,2.343,0.399,4.393,0.399
	C331.951,119.299,334.601,115.202,334.601,109.757L334.601,109.757z M279.631,118.9h2.998c1.749-2.951,2.599-4.999,3.296-8.496
	c0.504-2.55,1.002-7.546,1.301-13.74h19.09V118.9h4.396v12.395h-6.146v-7.347h-18.787v7.347h-6.147V118.9L279.631,118.9z
	 M299.67,118.9L299.67,118.9v-17.191h-6.697c-0.397,4.899-0.75,8.249-1.247,10.595c-0.5,2.749-1.149,4.4-2.248,6.597H299.67
	L299.67,118.9z M252.094,110.753c0-11.146,5.647-14.738,13.344-14.738c7.892,0,11.091,5.193,11.091,13.742v2.396H258.74
	c0,5.996,3.75,6.992,8.596,6.992c1.901,0,5.147-0.646,7.398-1.095l1.046,5.146c-2.248,0.699-5.896,1.349-9.646,1.349
	C257.542,124.546,252.094,121.451,252.094,110.753L252.094,110.753z M269.687,107.705L269.687,107.705
	c0.046-4.097-1.604-6.947-4.901-6.947c-3.347,0-5.597,2.454-5.896,6.947H269.687L269.687,107.705z M221.349,88.615h6.797v35.333
	h-6.797V88.615L221.349,88.615z M228.296,105.406L228.296,105.406v-0.799l13.193-15.992h8.694l-14.441,16.442l15.293,18.891h-8.745
	L228.296,105.406L228.296,105.406z M315.288,44.22h6.649v12.995l9.548-12.995h7.189l-10.342,12.596l11.544,14.691h-7.843
	l-10.097-13.896v13.896h-6.649V44.22L315.288,44.22z M283.204,44.22h6.646v11.046h11.443V44.22h6.646v27.287h-6.646V60.361H289.85
	v11.146h-6.646V44.22L283.204,44.22z M251.802,63.911c0-6.845,6.197-8.246,11.245-8.294l5.398-0.053v-2.396
	c0-3.15-1.801-3.9-5.747-3.9c-2.602,0-5.599,0.701-7.597,1.202l-1.352-4.948c2.399-0.897,5.946-1.95,10.146-1.95
	c7.543,0,11.047,2.25,11.047,8.095v13.299c0,1.297,1.098,1.6,2.495,1.698l-0.299,5.093h-1.45c-2.896,0-6.046-0.697-6.65-3.098
	c-1.746,1.303-4.546,3.297-8.489,3.297C255,71.955,251.802,69.16,251.802,63.911L251.802,63.911z M268.446,65.014L268.446,65.014
	v-5.4l-5.049,0.199c-3.152,0.051-5.148,1.349-5.148,3.601c0,2.4,1.701,3.297,3.799,3.297
	C264.349,66.71,267.043,65.46,268.446,65.014L268.446,65.014z M221.349,36.179h23.342v5.395h-16.492v7.693h3.795
	c10.099,0,15.543,3.7,15.543,11.195c0,7.046-5.246,11.045-14.742,11.045h-11.445V36.179L221.349,36.179z M228.199,54.617
	L228.199,54.617v11.496h4.446c5.544,0,7.797-2.3,7.797-5.752c0-3.798-2.65-5.744-8.245-5.744H228.199z"/>
</svg>
