<?xml version="1.0" encoding="utf-8"?>
<!-- Copyright (c) Art. Lebedev Studio | http://www.artlebedev.ru/
    authors:    Chafonov Arthur arthur@design.ru
                Klenov Kirill klen@design.ru
-->
<!DOCTYPE svg PUBLIC "-//W3C//DTD SVG 1.1//EN" "http://www.w3.org/Graphics/SVG/1.1/DTD/svg11.dtd">
<svg version="1.1" xmlns="http://www.w3.org/2000/svg" xmlns:xlink="http://www.w3.org/1999/xlink" x="0px" y="0px"
	 width="100%" height="100%" viewBox="0 0 15 20" enable-background="new 0 0 15 20" xml:space="preserve">
    <g cursor="text">
    	<path d="M8.031,0.052c1.136,0,2.031,0.082,2.684,0.245c0.654,0.165,1.174,0.342,1.559,0.534c0.289,0.154,0.571,0.346,0.853,0.577
    		c0.278,0.231,0.534,0.52,0.764,0.867c0.23,0.346,0.413,0.75,0.55,1.212c0.133,0.461,0.202,0.992,0.202,1.586
    		c0,0.559-0.059,1.064-0.175,1.516c-0.114,0.452-0.27,0.86-0.462,1.226c-0.193,0.366-0.399,0.684-0.62,0.953
    		c-0.22,0.271-0.437,0.491-0.648,0.664c-0.443,0.384-0.916,0.693-1.415,0.923c-0.5,0.231-1.001,0.404-1.501,0.52
    		c-0.499,0.117-0.986,0.188-1.456,0.217c-0.474,0.028-0.901,0.044-1.286,0.044h-1.5v1.73h8.658v1.097H5.578v4.531l3.03,0.519v1.068
    		H0.125v-1.068l2.771-0.519v-4.531H0.125v-1.097h2.771v-1.73H0.125v-1.097h2.771V1.64L0.125,1.12V0.052H8.031z M6.936,10.038
    		c0.23,0,0.508-0.011,0.836-0.029C8.101,9.99,8.44,9.937,8.797,9.851c0.356-0.087,0.711-0.217,1.067-0.39
    		c0.355-0.174,0.668-0.404,0.938-0.693c0.155-0.173,0.351-0.491,0.594-0.953c0.238-0.461,0.359-1.134,0.359-2.02
    		c0-0.981-0.159-1.756-0.476-2.323c-0.318-0.567-0.669-1.005-1.055-1.314c-0.443-0.346-0.977-0.6-1.602-0.764
    		C7.999,1.231,7.311,1.148,6.56,1.148H5.578v8.89H6.936z"/>
    </g>
</svg>
